                                                                        S      1
,,9H表面 v3,9H表面 v3,7Hunknown,7Hunknown,32,38,7,99,15,,1.,2,2HMM, G      1
1,0.08,15H20241101.114331,0.01,10000.,7Hunknown,7Hunknown,11,0,15H202410G      2
23.101549;                                                              G      3
     186       1                                                00000000D      1
     186            -239       1       0                               0D      2
     514       2                                                00010000D      3
     514                       2       1                               0D      4
     510       4                                                00010000D      5
     510            -239       1       1                               0D      6
     510       5                                                00010000D      7
     510            -239       1       1                               0D      8
     510       6                                                00010000D      9
     510            -239       1       1                               0D     10
     510       7                                                00010000D     11
     510            -239       1       1                               0D     12
     510       8                                                00010000D     13
     510            -239       1       1                               0D     14
     510       9                                                00010000D     15
     510            -239       1       1                               0D     16
     510      10                                                00010000D     17
     510            -239       1       1                               0D     18
     510      11                                                00010000D     19
     510            -239       1       1                               0D     20
     510      12                                                00010000D     21
     510            -239       1       1                               0D     22
     510      13                                                00010000D     23
     510            -239       1       1                               0D     24
     510      14                                                00010000D     25
     510            -239       1       1                               0D     26
     510      15                                                00010000D     27
     510            -239       1       1                               0D     28
     510      16                                                00010000D     29
     510            -239       1       1                               0D     30
     510      17                                                00010000D     31
     510            -239       1       1                               0D     32
     510      18                                                00010000D     33
     510            -239       1       1                               0D     34
     510      19                                                00010000D     35
     510            -239       1       1                               0D     36
     510      20                                                00010000D     37
     510            -239       1       1                               0D     38
     510      21                                                00010000D     39
     510            -239       1       1                               0D     40
     510      22                                                00010000D     41
     510            -239       1       1                               0D     42
     510      23                                                00010000D     43
     510            -239       1       1                               0D     44
     508      24                                                00010000D     45
     508                       1       1                               0D     46
     508      25                                                00010000D     47
     508                       1       1                               0D     48
     508      26                                                00010000D     49
     508                       1       1                               0D     50
     508      27                                                00010000D     51
     508                       1       1                               0D     52
     508      28                                                00010000D     53
     508                       1       1                               0D     54
     508      29                                                00010000D     55
     508                       2       1                               0D     56
     508      31                                                00010000D     57
     508                       1       1                               0D     58
     508      32                                                00010000D     59
     508                       1       1                               0D     60
     508      33                                                00010000D     61
     508                       2       1                               0D     62
     508      35                                                00010000D     63
     508                       1       1                               0D     64
     508      36                                                00010000D     65
     508                       1       1                               0D     66
     508      37                                                00010000D     67
     508                       1       1                               0D     68
     508      38                                                00010000D     69
     508                       1       1                               0D     70
     508      39                                                00010000D     71
     508                       1       1                               0D     72
     508      40                                                00010000D     73
     508                       1       1                               0D     74
     508      41                                                00010000D     75
     508                       2       1                               0D     76
     508      43                                                00010000D     77
     508                       2       1                               0D     78
     508      45                                                00010000D     79
     508                       1       1                               0D     80
     508      46                                                00010000D     81
     508                       1       1                               0D     82
     508      47                                                00010000D     83
     508                       1       1                               0D     84
     508      48                                                00010000D     85
     508                       1       1                               0D     86
     508      49                                                00010000D     87
     508                       1       1                               0D     88
     508      50                                                00010000D     89
     508                       1       1                               0D     90
     126      51                                                00010000D     91
     126       0               3       0                               0D     92
     126      54                                                00010000D     93
     126       0               2       0                               0D     94
     126      56                                                00010000D     95
     126       0               2       0                               0D     96
     126      58                                                00010000D     97
     126       0               2       0                               0D     98
     126      60                                                00010000D     99
     126       0               3       0                               0D    100
     126      63                                                00010000D    101
     126       0               2       0                               0D    102
     126      65                                                00010000D    103
     126       0               2       0                               0D    104
     126      67                                                00010000D    105
     126       0               3       0                               0D    106
     126      70                                                00010000D    107
     126       0               2       0                               0D    108
     126      72                                                00010000D    109
     126       0               2       0                               0D    110
     126      74                                                00010000D    111
     126       0               3       0                               0D    112
     126      77                                                00010000D    113
     126       0               2       0                               0D    114
     126      79                                                00010000D    115
     126       0               4       0                               0D    116
     126      83                                                00010000D    117
     126       0               4       0                               0D    118
     126      87                                                00010000D    119
     126       0               4       0                               0D    120
     126      91                                                00010000D    121
     126       0               4       0                               0D    122
     126      95                                                00010000D    123
     126       0               4       0                               0D    124
     126      99                                                00010000D    125
     126       0               4       0                               0D    126
     126     103                                                00010000D    127
     126       0               4       0                               0D    128
     126     107                                                00010000D    129
     126       0               4       0                               0D    130
     126     111                                                00010000D    131
     126       0               3       0                               0D    132
     126     114                                                00010000D    133
     126       0               3       0                               0D    134
     126     117                                                00010000D    135
     126       0               3       0                               0D    136
     126     120                                                00010000D    137
     126       0               3       0                               0D    138
     126     123                                                00010000D    139
     126       0               4       0                               0D    140
     126     127                                                00010000D    141
     126       0               3       0                               0D    142
     126     130                                                00010000D    143
     126       0               3       0                               0D    144
     126     133                                                00010000D    145
     126       0               3       0                               0D    146
     126     136                                                00010000D    147
     126       0               3       0                               0D    148
     126     139                                                00010000D    149
     126       0               3       0                               0D    150
     126     142                                                00010000D    151
     126       0               3       0                               0D    152
     126     145                                                00010000D    153
     126       0               3       0                               0D    154
     126     148                                                00010000D    155
     126       0               3       0                               0D    156
     126     151                                                00010000D    157
     126       0               3       0                               0D    158
     126     154                                                00010000D    159
     126       0               3       0                               0D    160
     126     157                                                00010000D    161
     126       0               3       0                               0D    162
     126     160                                                00010000D    163
     126       0               3       0                               0D    164
     126     163                                                00010000D    165
     126       0               3       0                               0D    166
     126     166                                                00010000D    167
     126       0               3       0                               0D    168
     126     169                                                00010000D    169
     126       0               3       0                               0D    170
     126     172                                                00010000D    171
     126       0               3       0                               0D    172
     126     175                                                00010000D    173
     126       0               3       0                               0D    174
     126     178                                                00010000D    175
     126       0               3       0                               0D    176
     126     181                                                00010000D    177
     126       0               3       0                               0D    178
     126     184                                                00010000D    179
     126       0               3       0                               0D    180
     126     187                                                00010000D    181
     126       0               3       0                               0D    182
     126     190                                                00010000D    183
     126       0               3       0                               0D    184
     126     193                                                00010000D    185
     126       0               3       0                               0D    186
     126     196                                                00010000D    187
     126       0               3       0                               0D    188
     126     199                                                00010000D    189
     126       0               3       0                               0D    190
     126     202                                                00010000D    191
     126       0               3       0                               0D    192
     128     205                                                00010000D    193
     128       0    -239       3       0                               0D    194
     128     208                                                00010000D    195
     128       0    -239       3       0                               0D    196
     128     211                                                00010000D    197
     128       0    -239       3       0                               0D    198
     128     214                                                00010000D    199
     128       0    -239       3       0                               0D    200
     128     217                                                00010000D    201
     128       0    -239       3       0                               0D    202
     128     220                                                00010000D    203
     128       0    -239       5       0                               0D    204
     128     225                                                00010000D    205
     128       0    -239       5       0                               0D    206
     128     230                                                00010000D    207
     128       0    -239       5       0                               0D    208
     128     235                                                00010000D    209
     128       0    -239       5       0                               0D    210
     128     240                                                00010000D    211
     128       0    -239       5       0                               0D    212
     128     245                                                00010000D    213
     128       0    -239       5       0                               0D    214
     128     250                                                00010000D    215
     128       0    -239       5       0                               0D    216
     128     255                                                00010000D    217
     128       0    -239       5       0                               0D    218
     128     260                                                00010000D    219
     128       0    -239       5       0                               0D    220
     128     265                                                00010000D    221
     128       0    -239       5       0                               0D    222
     128     270                                                00010000D    223
     128       0    -239       5       0                               0D    224
     128     275                                                00010000D    225
     128       0    -239       5       0                               0D    226
     128     280                                                00010000D    227
     128       0    -239       5       0                               0D    228
     128     285                                                00010000D    229
     128       0    -239       5       0                               0D    230
     128     290                                                00010000D    231
     128       0    -239       5       0                               0D    232
     502     295                                                00010000D    233
     502                      19       1                               0D    234
     504     314                                                00010001D    235
     504                      15       1                               0D    236
     406     329                                                00000000D    237
     406                       1      15                               0D    238
     314     330                                                00000200D    239
     314                       2       0                               0D    240
186,3,1,0,0,1,237;                                                     1P      1
514,20,5,1,7,1,9,1,11,1,13,1,15,1,17,1,19,1,21,1,23,1,25,1,27,1,       3P      2
29,1,31,1,33,1,35,1,37,1,39,1,41,1,43,1;                               3P      3
510,193,1,1,45;                                                        5P      4
510,195,1,1,47;                                                        7P      5
510,197,1,1,49;                                                        9P      6
510,199,1,1,51;                                                       11P      7
510,201,2,1,53,55;                                                    13P      8
510,203,1,1,57;                                                       15P      9
510,205,1,1,59;                                                       17P     10
510,207,1,1,61;                                                       19P     11
510,209,1,1,63;                                                       21P     12
510,211,2,1,65,67;                                                    23P     13
510,213,1,1,69;                                                       25P     14
510,215,1,1,71;                                                       27P     15
510,217,1,1,73;                                                       29P     16
510,219,1,1,75;                                                       31P     17
510,221,1,1,77;                                                       33P     18
510,223,1,1,79;                                                       35P     19
510,225,1,1,81;                                                       37P     20
510,227,1,1,83;                                                       39P     21
510,229,1,1,85;                                                       41P     22
510,231,2,1,87,89;                                                    43P     23
508,4,0,235,1,0,0,0,235,2,1,0,0,235,3,1,0,0,235,4,0,0;                45P     24
508,4,0,235,5,0,0,0,235,6,1,0,0,235,7,1,0,0,235,2,0,0;                47P     25
508,4,0,235,8,0,0,0,235,9,1,0,0,235,10,1,0,0,235,6,0,0;               49P     26
508,4,0,235,11,0,0,0,235,4,1,0,0,235,12,1,0,0,235,9,0,0;              51P     27
508,4,0,235,12,0,0,0,235,3,0,0,0,235,7,0,0,0,235,10,0,0;              53P     28
508,8,0,235,13,0,0,0,235,14,0,0,0,235,15,0,0,0,235,16,0,0,0,235,      55P     29
17,0,0,0,235,18,0,0,0,235,19,0,0,0,235,20,0,0;                        55P     30
508,4,0,235,17,1,0,0,235,21,1,0,0,235,22,0,0,0,235,23,0,0;            57P     31
508,4,0,235,16,1,0,0,235,24,1,0,0,235,25,0,0,0,235,21,0,0;            59P     32
508,6,0,235,15,1,0,0,235,26,1,0,0,235,27,1,0,0,235,28,1,0,0,235,      61P     33
29,0,0,0,235,24,0,0;                                                  61P     34
508,4,0,235,14,1,0,0,235,30,1,0,0,235,31,1,0,0,235,26,0,0;            63P     35
508,4,0,235,32,1,0,0,235,33,1,0,0,235,34,1,0,0,235,35,1,0;            65P     36
508,4,0,235,1,1,0,0,235,11,1,0,0,235,8,1,0,0,235,5,1,0;               67P     37
508,4,0,235,20,1,0,0,235,36,1,0,0,235,37,1,0,0,235,38,0,0;            69P     38
508,4,0,235,19,1,0,0,235,39,1,0,0,235,40,1,0,0,235,36,0,0;            71P     39
508,4,0,235,13,1,0,0,235,38,1,0,0,235,41,1,0,0,235,30,0,0;            73P     40
508,6,0,235,41,0,0,0,235,37,0,0,0,235,40,0,0,0,235,42,0,0,0,235,      75P     41
27,0,0,0,235,31,0,0;                                                  75P     42
508,6,0,235,18,1,0,0,235,23,1,0,0,235,43,0,0,0,235,28,0,0,0,235,      77P     43
42,1,0,0,235,39,0,0;                                                  77P     44
508,4,0,235,44,0,0,0,235,45,1,0,0,235,35,0,0,0,235,46,0,0;            79P     45
508,4,0,235,47,0,0,0,235,46,1,0,0,235,34,0,0,0,235,48,0,0;            81P     46
508,4,0,235,49,0,0,0,235,48,1,0,0,235,33,0,0,0,235,50,0,0;            83P     47
508,4,0,235,51,0,0,0,235,50,1,0,0,235,32,0,0,0,235,45,0,0;            85P     48
508,4,0,235,51,1,0,0,235,44,1,0,0,235,47,1,0,0,235,49,1,0;            87P     49
508,4,0,235,25,1,0,0,235,29,1,0,0,235,43,1,0,0,235,22,1,0;            89P     50
126,1,1,0,0,1,0,-0.599999999999976,-0.599999999999976,                91P     51
1.80000000000002,1.80000000000002,1.,1.,-13.,-12.,5.,-13.,12.,        91P     52
5.,-0.599999999999976,1.80000000000002,0.,0.,0.;                      91P     53
126,1,1,0,0,1,0,0.,0.,0.1,0.1,1.,1.,-13.,-12.,5.,-13.,-12.,4.,        93P     54
0.,0.1,0.,0.,0.;                                                      93P     55
126,1,1,0,0,1,0,0.,0.,2.4,2.4,1.,1.,-13.,-12.,4.,-13.,12.,4.,0.,      95P     56
2.4,0.,0.,0.;                                                         95P     57
126,1,1,0,0,1,0,0.,0.,0.1,0.1,1.,1.,-13.,12.,5.,-13.,12.,4.,0.,       97P     58
0.1,0.,0.,0.;                                                         97P     59
126,1,1,0,0,1,0,-0.649999999999991,-0.649999999999991,                99P     60
1.95000000000001,1.95000000000001,1.,1.,13.,-12.,5.,-13.,-12.,        99P     61
5.,-0.649999999999991,1.95000000000001,0.,0.,0.;                      99P     62
126,1,1,0,0,1,0,0.,0.,0.1,0.1,1.,1.,13.,-12.,5.,13.,-12.,4.,0.,      101P     63
0.1,0.,0.,0.;                                                        101P     64
126,1,1,0,0,1,0,0.,0.,2.6,2.6,1.,1.,13.,-12.,4.,-13.,-12.,4.,0.,     103P     65
2.6,0.,0.,0.;                                                        103P     66
126,1,1,0,0,1,0,-0.600000000000025,-0.600000000000025,               105P     67
1.79999999999998,1.79999999999998,1.,1.,13.,12.,5.,13.,-12.,5.,      105P     68
-0.600000000000025,1.79999999999998,0.,0.,0.;                        105P     69
126,1,1,0,0,1,0,0.,0.,0.1,0.1,1.,1.,13.,12.,5.,13.,12.,4.,0.,        107P     70
0.1,0.,0.,0.;                                                        107P     71
126,1,1,0,0,1,0,0.,0.,2.4,2.4,1.,1.,13.,12.,4.,13.,-12.,4.,0.,       109P     72
2.4,0.,0.,0.;                                                        109P     73
126,1,1,0,0,1,0,-0.650000000000009,-0.650000000000009,               111P     74
1.94999999999999,1.94999999999999,1.,1.,-13.,12.,5.,13.,12.,5.,      111P     75
-0.650000000000009,1.94999999999999,0.,0.,0.;                        111P     76
126,1,1,0,0,1,0,0.,0.,2.6,2.6,1.,1.,-13.,12.,4.,13.,12.,4.,0.,       113P     77
2.6,0.,0.,0.;                                                        113P     78
126,1,1,0,0,1,0,0.0150000000000088,0.0150000000000088,               115P     79
0.245000000000009,0.245000000000009,1.,1.,2.60000000000019,          115P     80
3.79999999999952,4.,4.90000000000019,3.79999999999952,4.,            115P     81
0.0150000000000088,0.245000000000009,0.,0.,0.;                       115P     82
126,1,1,0,0,1,0,-0.340000000000024,-0.340000000000024,               117P     83
-0.0100000000000244,-0.0100000000000244,1.,1.,2.60000000000019,      117P     84
0.499999999999523,4.,2.60000000000019,3.79999999999952,4.,           117P     85
-0.340000000000024,-0.0100000000000244,0.,0.,0.;                     117P     86
126,1,1,0,0,1,0,-0.675000000000009,-0.675000000000009,               119P     87
-0.485000000000009,-0.485000000000009,1.,1.,4.5000000000002,         119P     88
0.499999999999523,4.,2.60000000000019,0.499999999999523,4.,          119P     89
-0.675000000000009,-0.485000000000009,0.,0.,0.;                      119P     90
126,1,1,0,0,1,0,-0.875000000000024,-0.875000000000024,               121P     91
0.0249999999999757,0.0249999999999757,1.,1.,4.5000000000002,         121P     92
-8.50000000000048,4.,4.5000000000002,0.499999999999523,4.,           121P     93
-0.875000000000024,0.0249999999999757,0.,0.,0.;                      121P     94
126,1,1,0,0,1,0,-0.674999999999991,-0.674999999999991,               123P     95
0.225000000000009,0.225000000000009,1.,1.,-4.49999999999981,         123P     96
-8.50000000000048,4.,4.5000000000002,-8.50000000000048,4.,           123P     97
-0.674999999999991,0.225000000000009,0.,0.,0.;                       123P     98
126,1,1,0,0,1,0,-1.20499999999998,-1.20499999999998,                 125P     99
0.425000000000024,0.425000000000024,1.,1.,-4.49999999999981,         125P    100
7.79999999999952,4.,-4.49999999999981,-8.50000000000048,4.,          125P    101
-1.20499999999998,0.425000000000024,0.,0.,0.;                        125P    102
126,1,1,0,0,1,0,-0.360000000000009,-0.360000000000009,               127P    103
0.579999999999991,0.579999999999991,1.,1.,4.90000000000019,          127P    104
7.79999999999952,4.,-4.49999999999981,7.79999999999952,4.,           127P    105
-0.360000000000009,0.579999999999991,0.,0.,0.;                       127P    106
126,1,1,0,0,1,0,-0.0100000000000244,-0.0100000000000244,             129P    107
0.389999999999976,0.389999999999976,1.,1.,4.90000000000019,          129P    108
3.79999999999952,4.,4.90000000000019,7.79999999999952,4.,            129P    109
-0.0100000000000244,0.389999999999976,0.,0.,0.;                      129P    110
126,1,1,0,0,1,0,0.1,0.1,0.5,0.5,1.,1.,4.5000000000002,               131P    111
-8.50000000000048,4.,4.5000000000002,-8.50000000000048,0.,0.1,       131P    112
0.5,0.,0.,0.;                                                        131P    113
126,1,1,0,0,1,0,-0.675,-0.675,0.225,0.225,1.,1.,                     133P    114
-4.49999999999981,-8.50000000000048,0.,4.5000000000002,              133P    115
-8.50000000000048,0.,-0.675,0.225,0.,0.,0.;                          133P    116
126,1,1,0,0,1,0,0.1,0.1,0.5,0.5,1.,1.,-4.49999999999981,             135P    117
-8.50000000000048,4.,-4.49999999999981,-8.50000000000048,0.,0.1,     135P    118
0.5,0.,0.,0.;                                                        135P    119
126,1,1,0,0,1,0,0.1,0.1,0.5,0.5,1.,1.,4.5000000000002,               137P    120
0.499999999999523,4.,4.5000000000002,0.499999999999523,0.,0.1,       137P    121
0.5,0.,0.,0.;                                                        137P    122
126,1,1,0,0,1,0,-0.875,-0.875,0.0250000000000001,                    139P    123
0.0250000000000001,1.,1.,4.5000000000002,-8.50000000000048,0.,       139P    124
4.5000000000002,0.499999999999523,0.,-0.875,0.0250000000000001,      139P    125
0.,0.,0.;                                                            139P    126
126,1,1,0,0,1,0,0.1,0.1,0.2,0.2,1.,1.,2.60000000000019,              141P    127
0.499999999999523,4.,2.60000000000019,0.499999999999523,3.,0.1,      141P    128
0.2,0.,0.,0.;                                                        141P    129
126,1,1,0,0,1,0,-0.5325,-0.5325,0.1775,0.1775,1.,1.,                 143P    130
2.60000000000019,0.499999999999523,3.,-4.49999999999981,             143P    131
0.499999999999523,3.,-0.5325,0.1775,0.,0.,0.;                        143P    132
126,1,1,0,0,1,0,0.2,0.2,0.5,0.5,1.,1.,-4.49999999999981,             145P    133
0.499999999999523,3.,-4.49999999999981,0.499999999999523,0.,0.2,     145P    134
0.5,0.,0.,0.;                                                        145P    135
126,1,1,0,0,1,0,-0.675,-0.675,0.225,0.225,1.,1.,4.5000000000002,     147P    136
0.499999999999523,0.,-4.49999999999981,0.499999999999523,0.,         147P    137
-0.675,0.225,0.,0.,0.;                                               147P    138
126,1,1,0,0,1,0,0.1,0.1,0.2,0.2,1.,1.,2.60000000000019,              149P    139
3.79999999999952,4.,2.60000000000019,3.79999999999952,3.,0.1,        149P    140
0.2,0.,0.,0.;                                                        149P    141
126,1,1,0,0,1,0,-0.33,-0.33,0.,0.,1.,1.,2.60000000000019,            151P    142
3.79999999999952,3.,2.60000000000019,0.499999999999523,3.,-0.33,     151P    143
0.,0.,0.,0.;                                                         151P    144
126,1,1,0,0,1,0,-2.8,-2.8,0.,0.,1.,1.,14.0000000000002,              153P    145
12.4999999999995,5.,-13.9999999999998,12.4999999999995,5.,-2.8,      153P    146
0.,0.,0.,0.;                                                         153P    147
126,1,1,0,0,1,0,-2.5,-2.5,0.,0.,1.,1.,-13.9999999999998,             155P    148
12.4999999999995,5.,-13.9999999999998,-12.5000000000005,5.,-2.5,     155P    149
0.,0.,0.,0.;                                                         155P    150
126,1,1,0,0,1,0,-2.8,-2.8,0.,0.,1.,1.,-13.9999999999998,             157P    151
-12.5000000000005,5.,14.0000000000002,-12.5000000000005,5.,-2.8,     157P    152
0.,0.,0.,0.;                                                         157P    153
126,1,1,0,0,1,0,-2.5,-2.5,0.,0.,1.,1.,14.0000000000002,              159P    154
-12.5000000000005,5.,14.0000000000002,12.4999999999995,5.,-2.5,      159P    155
0.,0.,0.,0.;                                                         159P    156
126,1,1,0,0,1,0,0.1,0.1,0.2,0.2,1.,1.,4.90000000000019,              161P    157
7.79999999999952,4.,4.90000000000019,7.79999999999952,3.,0.1,        161P    158
0.2,0.,0.,0.;                                                        161P    159
126,1,1,0,0,1,0,0.,0.,0.4,0.4,1.,1.,4.90000000000019,                163P    160
7.79999999999952,3.,4.90000000000019,3.79999999999952,3.,0.,0.4,     163P    161
0.,0.,0.;                                                            163P    162
126,1,1,0,0,1,0,0.1,0.1,0.2,0.2,1.,1.,4.90000000000019,              165P    163
3.79999999999952,4.,4.90000000000019,3.79999999999952,3.,0.1,        165P    164
0.2,0.,0.,0.;                                                        165P    165
126,1,1,0,0,1,0,0.1,0.1,0.2,0.2,1.,1.,-4.49999999999981,             167P    166
7.79999999999952,4.,-4.49999999999981,7.79999999999952,3.,0.1,       167P    167
0.2,0.,0.,0.;                                                        167P    168
126,1,1,0,0,1,0,-0.71,-0.71,0.23,0.23,1.,1.,-4.49999999999981,       169P    169
7.79999999999952,3.,4.90000000000019,7.79999999999952,3.,-0.71,      169P    170
0.23,0.,0.,0.;                                                       169P    171
126,1,1,0,0,1,0,0.,0.,0.23,0.23,1.,1.,4.90000000000019,              171P    172
3.79999999999952,3.,2.60000000000019,3.79999999999952,3.,0.,         171P    173
0.23,0.,0.,0.;                                                       171P    174
126,1,1,0,0,1,0,-0.73,-0.73,0.,0.,1.,1.,-4.49999999999981,           173P    175
0.499999999999523,3.,-4.49999999999981,7.79999999999952,3.,          173P    176
-0.73,0.,0.,0.,0.;                                                   173P    177
126,1,1,0,0,1,0,-0.475,-0.475,0.425,0.425,1.,1.,                     175P    178
-4.49999999999981,0.499999999999523,0.,-4.49999999999981,            175P    179
-8.50000000000048,0.,-0.475,0.425,0.,0.,0.;                          175P    180
126,1,1,0,0,1,0,0.,0.,2.5,2.5,1.,1.,14.0000000000002,                177P    181
12.4999999999995,0.,14.0000000000002,-12.5000000000005,0.,0.,        177P    182
2.5,0.,0.,0.;                                                        177P    183
126,1,1,0,0,1,0,0.,0.,0.5,0.5,1.,1.,14.0000000000002,                179P    184
12.4999999999995,0.,14.0000000000002,12.4999999999995,5.,0.,0.5,     179P    185
0.,0.,0.;                                                            179P    186
126,1,1,0,0,1,0,0.,0.,0.5,0.5,1.,1.,14.0000000000002,                181P    187
-12.5000000000005,0.,14.0000000000002,-12.5000000000005,5.,0.,       181P    188
0.5,0.,0.,0.;                                                        181P    189
126,1,1,0,0,1,0,0.,0.,2.8,2.8,1.,1.,14.0000000000002,                183P    190
-12.5000000000005,0.,-13.9999999999998,-12.5000000000005,0.,0.,      183P    191
2.8,0.,0.,0.;                                                        183P    192
126,1,1,0,0,1,0,0.,0.,0.5,0.5,1.,1.,-13.9999999999998,               185P    193
-12.5000000000005,0.,-13.9999999999998,-12.5000000000005,5.,0.,      185P    194
0.5,0.,0.,0.;                                                        185P    195
126,1,1,0,0,1,0,0.,0.,2.5,2.5,1.,1.,-13.9999999999998,               187P    196
-12.5000000000005,0.,-13.9999999999998,12.4999999999995,0.,0.,       187P    197
2.5,0.,0.,0.;                                                        187P    198
126,1,1,0,0,1,0,0.,0.,0.5,0.5,1.,1.,-13.9999999999998,               189P    199
12.4999999999995,0.,-13.9999999999998,12.4999999999995,5.,0.,        189P    200
0.5,0.,0.,0.;                                                        189P    201
126,1,1,0,0,1,0,0.,0.,2.8,2.8,1.,1.,-13.9999999999998,               191P    202
12.4999999999995,0.,14.0000000000002,12.4999999999995,0.,0.,2.8,     191P    203
0.,0.,0.;                                                            191P    204
128,1,1,1,1,0,0,1,0,0,-0.001,-0.001,2.401,2.401,-0.001,-0.001,       193P    205
0.101,0.101,1.,1.,1.,1.,-13.,12.01,5.01,-13.,-12.01,5.01,-13.,       193P    206
12.01,3.99,-13.,-12.01,3.99,-0.001,2.401,-0.001,0.101;               193P    207
128,1,1,1,1,0,0,1,0,0,-0.001,-0.001,2.601,2.601,-0.001,-0.001,       195P    208
0.101,0.101,1.,1.,1.,1.,-13.01,-12.,5.01,13.01,-12.,5.01,-13.01,     195P    209
-12.,3.99,13.01,-12.,3.99,-0.001,2.601,-0.001,0.101;                 195P    210
128,1,1,1,1,0,0,1,0,0,-0.001,-0.001,2.401,2.401,-0.001,-0.001,       197P    211
0.101,0.101,1.,1.,1.,1.,13.,-12.01,5.01,13.,12.01,5.01,13.,          197P    212
-12.01,3.99,13.,12.01,3.99,-0.001,2.401,-0.001,0.101;                197P    213
128,1,1,1,1,0,0,1,0,0,-0.001,-0.001,2.601,2.601,-0.001,-0.001,       199P    214
0.101,0.101,1.,1.,1.,1.,13.01,12.,5.01,-13.01,12.,5.01,13.01,        199P    215
12.,3.99,-13.01,12.,3.99,-0.001,2.601,-0.001,0.101;                  199P    216
128,1,1,1,1,0,0,1,0,0,-1.301,-1.301,1.301,1.301,-1.201,-1.201,       201P    217
1.201,1.201,1.,1.,1.,1.,-13.01,-12.01,4.,13.01,-12.01,4.,-13.01,     201P    218
12.01,4.,13.01,12.01,4.,-1.301,1.301,-1.201,1.201;                   201P    219
128,1,1,1,1,0,0,1,0,0,-0.001,-0.001,0.901,0.901,0.099,0.099,         203P    220
0.501,0.501,1.,1.,1.,1.,-4.50999999999981,-8.50000000000048,         203P    221
4.01,4.5100000000002,-8.50000000000048,4.01,-4.50999999999981,       203P    222
-8.50000000000048,-0.01,4.5100000000002,-8.50000000000048,-0.01,     203P    223
-0.001,0.901,0.099,0.501;                                            203P    224
128,1,1,1,1,0,0,1,0,0,-0.001,-0.001,0.901,0.901,0.099,0.099,         205P    225
0.501,0.501,1.,1.,1.,1.,4.5000000000002,-8.51000000000048,4.01,      205P    226
4.5000000000002,0.509999999999523,4.01,4.5000000000002,              205P    227
-8.51000000000048,-0.01,4.5000000000002,0.509999999999523,-0.01,     205P    228
-0.001,0.901,0.099,0.501;                                            205P    229
128,1,1,1,1,0,0,1,0,0,-0.001,-0.001,0.901,0.901,0.099,0.099,         207P    230
0.501,0.501,1.,1.,1.,1.,4.5100000000002,0.499999999999523,4.01,      207P    231
-4.50999999999981,0.499999999999523,4.01,4.5100000000002,            207P    232
0.499999999999523,-0.01,-4.50999999999981,0.499999999999523,         207P    233
-0.01,-0.001,0.901,0.099,0.501;                                      207P    234
128,1,1,1,1,0,0,1,0,0,0.399,0.399,0.731,0.731,0.099,0.099,0.201,     209P    235
0.201,1.,1.,1.,1.,2.60000000000019,0.489999999999523,4.01,           209P    236
2.60000000000019,3.80999999999952,4.01,2.60000000000019,             209P    237
0.489999999999523,2.99,2.60000000000019,3.80999999999952,2.99,       209P    238
0.399,0.731,0.099,0.201;                                             209P    239
128,1,1,1,1,0,0,1,0,0,-1.401,-1.401,1.401,1.401,-1.251,-1.251,       211P    240
1.251,1.251,1.,1.,1.,1.,-14.0099999999998,-12.5100000000005,5.,      211P    241
14.0100000000002,-12.5100000000005,5.,-14.0099999999998,             211P    242
12.5099999999995,5.,14.0100000000002,12.5099999999995,5.,-1.401,     211P    243
1.401,-1.251,1.251;                                                  211P    244
128,1,1,1,1,0,0,1,0,0,-0.001,-0.001,0.401,0.401,0.099,0.099,         213P    245
0.201,0.201,1.,1.,1.,1.,4.90000000000019,3.78999999999952,4.01,      213P    246
4.90000000000019,7.80999999999952,4.01,4.90000000000019,             213P    247
3.78999999999952,2.99,4.90000000000019,7.80999999999952,2.99,        213P    248
-0.001,0.401,0.099,0.201;                                            213P    249
128,1,1,1,1,0,0,1,0,0,-0.711,-0.711,0.231,0.231,0.099,0.099,         215P    250
0.201,0.201,1.,1.,1.,1.,4.91000000000019,7.79999999999952,4.01,      215P    251
-4.50999999999981,7.79999999999952,4.01,4.91000000000019,            215P    252
7.79999999999952,2.99,-4.50999999999981,7.79999999999952,2.99,       215P    253
-0.711,0.231,0.099,0.201;                                            215P    254
128,1,1,1,1,0,0,1,0,0,-0.001,-0.001,0.231,0.231,0.099,0.099,         217P    255
0.201,0.201,1.,1.,1.,1.,2.59000000000019,3.79999999999952,4.01,      217P    256
4.91000000000019,3.79999999999952,4.01,2.59000000000019,             217P    257
3.79999999999952,2.99,4.91000000000019,3.79999999999952,2.99,        217P    258
-0.001,0.231,0.099,0.201;                                            217P    259
128,1,1,1,1,0,0,1,0,0,-0.116,-0.116,0.826,0.826,-0.531,-0.531,       219P    260
0.201,0.201,1.,1.,1.,1.,-4.50999999999981,0.489999999999523,3.,      219P    261
4.91000000000019,0.489999999999523,3.,-4.50999999999981,             219P    262
7.80999999999952,3.,4.91000000000019,7.80999999999952,3.,-0.116,     219P    263
0.826,-0.531,0.201;                                                  219P    264
128,1,1,1,1,0,0,1,0,0,-0.001,-0.001,1.631,1.631,0.099,0.099,         221P    265
0.501,0.501,1.,1.,1.,1.,-4.49999999999981,7.80999999999952,4.01,     221P    266
-4.49999999999981,-8.51000000000048,4.01,-4.49999999999981,          221P    267
7.80999999999952,-0.01,-4.49999999999981,-8.51000000000048,          221P    268
-0.01,-0.001,1.631,0.099,0.501;                                      221P    269
128,1,1,1,1,0,0,1,0,0,-0.001,-0.001,2.501,2.501,-0.001,-0.001,       223P    270
0.501,0.501,1.,1.,1.,1.,14.0000000000002,-12.5100000000005,          223P    271
-0.01,14.0000000000002,12.5099999999995,-0.01,14.0000000000002,      223P    272
-12.5100000000005,5.01,14.0000000000002,12.5099999999995,5.01,       223P    273
-0.001,2.501,-0.001,0.501;                                           223P    274
128,1,1,1,1,0,0,1,0,0,-0.001,-0.001,2.801,2.801,-0.001,-0.001,       225P    275
0.501,0.501,1.,1.,1.,1.,-14.0099999999998,-12.5000000000005,         225P    276
-0.01,14.0100000000002,-12.5000000000005,-0.01,                      225P    277
-14.0099999999998,-12.5000000000005,5.01,14.0100000000002,           225P    278
-12.5000000000005,5.01,-0.001,2.801,-0.001,0.501;                    225P    279
128,1,1,1,1,0,0,1,0,0,-0.001,-0.001,2.501,2.501,-0.001,-0.001,       227P    280
0.501,0.501,1.,1.,1.,1.,-13.9999999999998,12.5099999999995,          227P    281
-0.01,-13.9999999999998,-12.5100000000005,-0.01,                     227P    282
-13.9999999999998,12.5099999999995,5.01,-13.9999999999998,           227P    283
-12.5100000000005,5.01,-0.001,2.501,-0.001,0.501;                    227P    284
128,1,1,1,1,0,0,1,0,0,-0.001,-0.001,2.801,2.801,-0.001,-0.001,       229P    285
0.501,0.501,1.,1.,1.,1.,14.0100000000002,12.4999999999995,-0.01,     229P    286
-14.0099999999998,12.4999999999995,-0.01,14.0100000000002,           229P    287
12.4999999999995,5.01,-14.0099999999998,12.4999999999995,5.01,       229P    288
-0.001,2.801,-0.001,0.501;                                           229P    289
128,1,1,1,1,0,0,1,0,0,-1.401,-1.401,1.401,1.401,-1.251,-1.251,       231P    290
1.251,1.251,1.,1.,1.,1.,14.0100000000002,-12.5100000000005,0.,       231P    291
-14.0099999999998,-12.5100000000005,0.,14.0100000000002,             231P    292
12.5099999999995,0.,-14.0099999999998,12.5099999999995,0.,           231P    293
-1.401,1.401,-1.251,1.251;                                           231P    294
502,34,-13.,-12.,5.,-13.,12.,5.,-13.,-12.,4.,-13.,12.,4.,13.,        233P    295
-12.,5.,13.,-12.,4.,13.,12.,5.,13.,12.,4.,2.60000000000019,          233P    296
3.79999999999952,4.,4.90000000000019,3.79999999999952,4.,            233P    297
2.60000000000019,0.499999999999523,4.,4.5000000000002,               233P    298
0.499999999999523,4.,4.5000000000002,-8.50000000000048,4.,           233P    299
-4.49999999999981,-8.50000000000048,4.,-4.49999999999981,            233P    300
7.79999999999952,4.,4.90000000000019,7.79999999999952,4.,            233P    301
4.5000000000002,-8.50000000000048,0.,-4.49999999999981,              233P    302
-8.50000000000048,0.,4.5000000000002,0.499999999999523,0.,           233P    303
2.60000000000019,0.499999999999523,3.,-4.49999999999981,             233P    304
0.499999999999523,3.,-4.49999999999981,0.499999999999523,0.,         233P    305
2.60000000000019,3.79999999999952,3.,14.0000000000002,               233P    306
12.4999999999995,5.,-13.9999999999998,12.4999999999995,5.,           233P    307
-13.9999999999998,-12.5000000000005,5.,14.0000000000002,             233P    308
-12.5000000000005,5.,4.90000000000019,7.79999999999952,3.,           233P    309
4.90000000000019,3.79999999999952,3.,-4.49999999999981,              233P    310
7.79999999999952,3.,14.0000000000002,12.4999999999995,0.,            233P    311
14.0000000000002,-12.5000000000005,0.,-13.9999999999998,             233P    312
-12.5000000000005,0.,-13.9999999999998,12.4999999999995,0.;          233P    313
504,51,91,233,1,233,2,93,233,1,233,3,95,233,3,233,4,97,233,2,        235P    314
233,4,99,233,5,233,1,101,233,5,233,6,103,233,6,233,3,105,233,7,      235P    315
233,5,107,233,7,233,8,109,233,8,233,6,111,233,2,233,7,113,233,4,     235P    316
233,8,115,233,9,233,10,117,233,11,233,9,119,233,12,233,11,121,       235P    317
233,13,233,12,123,233,14,233,13,125,233,15,233,14,127,233,16,        235P    318
233,15,129,233,10,233,16,131,233,13,233,17,133,233,18,233,17,        235P    319
135,233,14,233,18,137,233,12,233,19,139,233,17,233,19,141,233,       235P    320
11,233,20,143,233,20,233,21,145,233,21,233,22,147,233,19,233,22,     235P    321
149,233,9,233,23,151,233,23,233,20,153,233,24,233,25,155,233,25,     235P    322
233,26,157,233,26,233,27,159,233,27,233,24,161,233,16,233,28,        235P    323
163,233,28,233,29,165,233,10,233,29,167,233,15,233,30,169,233,       235P    324
30,233,28,171,233,29,233,23,173,233,21,233,30,175,233,22,233,18,     235P    325
177,233,31,233,32,179,233,31,233,24,181,233,32,233,27,183,233,       235P    326
32,233,33,185,233,33,233,26,187,233,33,233,34,189,233,34,233,25,     235P    327
191,233,34,233,31;                                                   235P    328
406,1,10Hボディ1;                                                 237P    329
314,62.7450980392157,62.7450980392157,62.7450980392157,15H鋼 -      239P    330
サテン;                                                           239P    331
S      1G      3D    240P    331                                        T      1
